# xmcd CD database file
#
# Track frame offsets:
#	150
#	14275
#	27270
#	40475
#	53655
#	66695
#	79380
#	91465
#	104495
#	118470
#	130640
#	143720
#	156675
#	170265
#	183240
#	195390
#	208815
#	221150
#
# Disc length: 3104 seconds
#
# Revision: 0
# Processed by: cddbd v1.4PL0 Copyright (c) Steve Scherf et al.
# Submitted via: CDex 1.40Release
#
DISCID=130c1e12
DTITLE=Dinah Washington - Jazz and Blues Collection
DYEAR=1997
DGENRE=Blues
TTITLE0=Mellow Mama Blues
TTITLE1=All Or Nothing Blues
TTITLE2=Rich Man's Blues
TTITLE3=Chewin' Mama Blues
TTITLE4=Blues For A Day
TTITLE5=Wise Woman Blues
TTITLE6=Pacific Coast Blue
TTITLE7=Beggin' Mama Blues
TTITLE8=Ny Lovin' Papa
TTITLE9=A Slick Chick
TTITLE10=Postman Blues
TTITLE11=That's Why A Woman Loves A Heel
TTITLE12=Stairway To The Stars
TTITLE13=I Want To Be Loved
TTITLE14=Since I Feel For You
TTITLE15=West Side Baby
TTITLE16=Tou Can Depend On Me
TTITLE17=Early In The Morning
EXTD=YEAR: 1997 ID3G: 0
EXTT0=
EXTT1=
EXTT2=
EXTT3=
EXTT4=
EXTT5=
EXTT6=
EXTT7=
EXTT8=
EXTT9=
EXTT10=
EXTT11=
EXTT12=
EXTT13=
EXTT14=
EXTT15=
EXTT16=
EXTT17=
PLAYORDER=
